<svg width="17" height="17" viewBox="0 0 17 17" fill="none" xmlns="http://www.w3.org/2000/svg">
<g clip-path="url(#clip0_17_7270)">
<path fill-rule="evenodd" clip-rule="evenodd" d="M8.99786 2.08007C8.94191 1.99991 8.86742 1.93445 8.78075 1.88924C8.69407 1.84404 8.59776 1.82043 8.5 1.82043C8.40224 1.82043 8.30593 1.84404 8.21926 1.88924C8.13258 1.93445 8.0581 1.99991 8.00214 2.08007L4.16743 7.55893L1.037 4.42729C0.952087 4.34216 0.843807 4.28416 0.72589 4.26064C0.607972 4.23712 0.485727 4.24915 0.374653 4.29519C0.263578 4.34123 0.168675 4.41922 0.101976 4.51926C0.0352775 4.61931 -0.000214157 4.7369 9.72219e-07 4.85714V12.75C9.72219e-07 13.3941 0.255868 14.0118 0.711313 14.4673C1.16676 14.9227 1.78448 15.1786 2.42857 15.1786H14.5714C15.2155 15.1786 15.8332 14.9227 16.2887 14.4673C16.7441 14.0118 17 13.3941 17 12.75V4.85714C17.0002 4.7369 16.9647 4.61931 16.898 4.51926C16.8313 4.41922 16.7364 4.34123 16.6253 4.29519C16.5143 4.24915 16.392 4.23712 16.2741 4.26064C16.1562 4.28416 16.0479 4.34216 15.963 4.42729L12.8326 7.55893L8.99786 2.08007Z" fill="#FFBD21"/>
</g>
<defs>
<clipPath id="clip0_17_7270">
<rect width="17" height="17" fill="white"/>
</clipPath>
</defs>
</svg>
