<svg width="20" height="20" viewBox="0 0 20 20" fill="none" xmlns="http://www.w3.org/2000/svg">
<path d="M0.68335 7.79166C0.68335 8.42155 0.933572 9.02564 1.37897 9.47104C1.82437 9.91643 2.42846 10.1667 3.05835 10.1667C3.68824 10.1667 4.29233 9.91643 4.73773 9.47104C5.18313 9.02564 5.43335 8.42155 5.43335 7.79166C5.43335 7.16177 5.18313 6.55768 4.73773 6.11228C4.29233 5.66688 3.68824 5.41666 3.05835 5.41666C2.42846 5.41666 1.82437 5.66688 1.37897 6.11228C0.933572 6.55768 0.68335 7.16177 0.68335 7.79166Z" fill="#656565"/>
<path d="M0.441622 12.2916H5.67496C5.75284 12.2909 5.82901 12.2687 5.89515 12.2275C5.96128 12.1864 6.01483 12.1278 6.04996 12.0583C6.08405 11.987 6.09668 11.9072 6.08633 11.8288C6.07597 11.7504 6.04307 11.6767 5.99162 11.6166C5.64151 11.1748 5.19547 10.8184 4.68727 10.5744C4.17907 10.3304 3.62202 10.2052 3.05829 10.2083C2.49497 10.2077 1.93874 10.3339 1.43091 10.5777C0.923088 10.8216 0.476718 11.1767 0.124955 11.6166C0.0735053 11.6767 0.0406045 11.7504 0.0302492 11.8288C0.0198939 11.9072 0.0325296 11.987 0.0666216 12.0583C0.101745 12.1278 0.155298 12.1864 0.221431 12.2275C0.287565 12.2687 0.363735 12.2909 0.441622 12.2916ZM10.1 5.83331C10.5679 5.83324 11.0254 5.69494 11.415 5.43577C11.8046 5.17659 12.109 4.8081 12.2899 4.37655C12.4708 3.945 12.5202 3.46962 12.4319 3.01009C12.3436 2.55055 12.1215 2.12735 11.7935 1.7936C11.4655 1.45985 11.0462 1.23043 10.5883 1.13414C10.1304 1.03785 9.65422 1.07898 9.21958 1.25236C8.78495 1.42575 8.41122 1.72367 8.14531 2.10871C7.8794 2.49376 7.73317 2.94878 7.72496 3.41665C7.72055 3.73172 7.77866 4.04455 7.89594 4.33702C8.01322 4.62949 8.18732 4.8958 8.40819 5.12055C8.62906 5.34529 8.89231 5.52401 9.18269 5.64635C9.47308 5.7687 9.78485 5.83224 10.1 5.83331ZM7.05829 8.12498H13.1333C13.2114 8.12514 13.2879 8.10334 13.3542 8.06209C13.4206 8.02083 13.4739 7.96177 13.5083 7.89165C13.5435 7.82106 13.5575 7.74179 13.5486 7.66341C13.5398 7.58504 13.5084 7.5109 13.4583 7.44998C13.0579 6.95018 12.5507 6.54632 11.9739 6.26803C11.3971 5.98973 10.7654 5.84404 10.125 5.84165C9.48455 5.84404 8.85279 5.98973 8.27601 6.26803C7.69922 6.54632 7.19203 6.95018 6.79162 7.44998C6.73069 7.50391 6.68653 7.5742 6.66437 7.65249C6.64221 7.73078 6.64299 7.81379 6.66662 7.89165C6.70218 7.96439 6.75815 8.02519 6.82771 8.06663C6.89727 8.10807 6.97739 8.12835 7.05829 8.12498ZM14.5666 7.79165C14.5666 8.42154 14.8168 9.02563 15.2622 9.47103C15.7076 9.91642 16.3117 10.1666 16.9416 10.1666C17.5715 10.1666 18.1756 9.91642 18.621 9.47103C19.0664 9.02563 19.3166 8.42154 19.3166 7.79165C19.3166 7.16176 19.0664 6.55767 18.621 6.11227C18.1756 5.66687 17.5715 5.41665 16.9416 5.41665C16.3117 5.41665 15.7076 5.66687 15.2622 6.11227C14.8168 6.55767 14.5666 7.16176 14.5666 7.79165Z" fill="#656565"/>
<path d="M14.3334 12.2917H19.5584C19.6364 12.2918 19.713 12.27 19.7793 12.2288C19.8456 12.1875 19.899 12.1285 19.9334 12.0583C19.9666 11.9873 19.9795 11.9084 19.9707 11.8304C19.9619 11.7525 19.9316 11.6785 19.8834 11.6167C19.5307 11.1756 19.083 10.8198 18.5736 10.576C18.0643 10.3321 17.5064 10.2064 16.9417 10.2083C16.3785 10.2083 15.8224 10.3348 15.3147 10.5786C14.807 10.8224 14.3605 11.1771 14.0084 11.6167C13.9583 11.6776 13.9269 11.7517 13.918 11.8301C13.9091 11.9085 13.9231 11.9878 13.9584 12.0583C13.9927 12.1285 14.0461 12.1875 14.1124 12.2288C14.1787 12.27 14.2553 12.2918 14.3334 12.2917Z" fill="#656565"/>
<path d="M19.1667 13.5417H13.75C13.6395 13.5417 13.5335 13.4978 13.4554 13.4196C13.3772 13.3415 13.3333 13.2355 13.3333 13.125V10.2083C13.3333 9.98732 13.2455 9.77536 13.0893 9.61908C12.933 9.4628 12.721 9.375 12.5 9.375H7.5C7.27899 9.375 7.06702 9.4628 6.91074 9.61908C6.75446 9.77536 6.66667 9.98732 6.66667 10.2083V13.125C6.66667 13.2355 6.62277 13.3415 6.54463 13.4196C6.46649 13.4978 6.36051 13.5417 6.25 13.5417H0.833333C0.61232 13.5417 0.400358 13.6295 0.244078 13.7857C0.0877974 13.942 0 14.154 0 14.375L0 18.125C0 18.346 0.0877974 18.558 0.244078 18.7143C0.400358 18.8705 0.61232 18.9583 0.833333 18.9583H19.1667C19.3877 18.9583 19.5996 18.8705 19.7559 18.7143C19.9122 18.558 20 18.346 20 18.125V14.375C20 14.154 19.9122 13.942 19.7559 13.7857C19.5996 13.6295 19.3877 13.5417 19.1667 13.5417Z" fill="#656565"/>
</svg>
