<svg width="28" height="28" viewBox="0 0 28 28" fill="none" xmlns="http://www.w3.org/2000/svg">
<path d="M22.7573 17.6523C23.3175 17.3341 24.0298 17.5306 24.3481 18.0908C24.6435 18.6109 24.4958 19.2622 24.0249 19.6074L23.9097 19.6816L16.2163 24.0537C15.2483 24.6086 14.0666 24.6468 13.0659 24.166L12.855 24.0547L5.25146 19.6777C4.69321 19.3562 4.50134 18.6433 4.82275 18.0849C5.12119 17.5665 5.75705 17.3639 6.29346 17.5947L6.41553 17.6562L14.0151 22.0302C14.2954 22.1899 14.6372 22.2098 14.9351 22.0879L15.0601 22.0263L22.7573 17.6523ZM22.8706 13.3828C23.4307 13.0646 24.1431 13.2602 24.4614 13.8203C24.757 14.3405 24.6084 14.9916 24.1372 15.3369L24.0229 15.4111L16.3296 19.7832C15.3615 20.3382 14.18 20.3764 13.1792 19.8955L12.9673 19.7851L5.36475 15.4082C4.80637 15.0867 4.61468 14.3738 4.93604 13.8154C5.23451 13.2969 5.87027 13.0942 6.40674 13.3252L6.52881 13.3857L14.1274 17.7607C14.4078 17.9206 14.7503 17.9403 15.0483 17.8183L15.1724 17.7568L22.8706 13.3828ZM12.7847 3.07516C13.5311 2.61972 14.47 2.61952 15.2163 3.07516L22.3511 7.43161C23.8536 8.34892 23.8383 10.5369 22.3228 11.4326L15.2144 15.6338C14.4837 16.0656 13.5759 16.0659 12.8442 15.6357L5.68994 11.4297C4.17083 10.5361 4.15257 8.34524 5.65674 7.42673L12.7847 3.07516Z" fill="#656565"/>
</svg>
