<svg width="20" height="20" viewBox="0 0 20 20" fill="none" xmlns="http://www.w3.org/2000/svg">
<path d="M0.68335 7.79166C0.68335 8.42155 0.933572 9.02564 1.37897 9.47104C1.82437 9.91643 2.42846 10.1667 3.05835 10.1667C3.68824 10.1667 4.29233 9.91643 4.73773 9.47104C5.18313 9.02564 5.43335 8.42155 5.43335 7.79166C5.43335 7.16177 5.18313 6.55768 4.73773 6.11228C4.29233 5.66688 3.68824 5.41666 3.05835 5.41666C2.42846 5.41666 1.82437 5.66688 1.37897 6.11228C0.933572 6.55768 0.68335 7.16177 0.68335 7.79166Z" fill="#515DEF"/>
<path d="M0.441744 12.2916H5.67508C5.75296 12.2909 5.82913 12.2687 5.89527 12.2275C5.9614 12.1864 6.01495 12.1278 6.05008 12.0583C6.08417 11.987 6.09681 11.9072 6.08645 11.8288C6.07609 11.7504 6.04319 11.6767 5.99174 11.6166C5.64163 11.1748 5.19559 10.8184 4.68739 10.5744C4.17919 10.3304 3.62214 10.2052 3.05841 10.2083C2.49509 10.2077 1.93886 10.3339 1.43103 10.5777C0.92321 10.8216 0.47684 11.1767 0.125077 11.6166C0.0736274 11.6767 0.0407266 11.7504 0.0303713 11.8288C0.0200159 11.9072 0.0326517 11.987 0.0667436 12.0583C0.101867 12.1278 0.15542 12.1864 0.221553 12.2275C0.287687 12.2687 0.363857 12.2909 0.441744 12.2916ZM10.1001 5.83331C10.568 5.83324 11.0255 5.69494 11.4151 5.43577C11.8047 5.17659 12.1091 4.8081 12.29 4.37655C12.4709 3.945 12.5203 3.46962 12.432 3.01009C12.3437 2.55055 12.1216 2.12735 11.7936 1.7936C11.4656 1.45985 11.0464 1.23043 10.5884 1.13414C10.1305 1.03785 9.65434 1.07898 9.2197 1.25236C8.78507 1.42575 8.41134 1.72367 8.14543 2.10871C7.87952 2.49376 7.73329 2.94878 7.72508 3.41665C7.72067 3.73172 7.77878 4.04455 7.89606 4.33702C8.01334 4.62949 8.18745 4.8958 8.40832 5.12055C8.62919 5.34529 8.89243 5.52401 9.18282 5.64635C9.4732 5.7687 9.78497 5.83224 10.1001 5.83331ZM7.05841 8.12498H13.1334C13.2115 8.12514 13.2881 8.10334 13.3544 8.06209C13.4207 8.02083 13.474 7.96177 13.5084 7.89165C13.5436 7.82106 13.5576 7.74179 13.5488 7.66341C13.5399 7.58504 13.5085 7.5109 13.4584 7.44998C13.058 6.95018 12.5508 6.54632 11.974 6.26803C11.3972 5.98973 10.7655 5.84404 10.1251 5.84165C9.48467 5.84404 8.85291 5.98973 8.27613 6.26803C7.69934 6.54632 7.19215 6.95018 6.79174 7.44998C6.73082 7.50391 6.68665 7.5742 6.66449 7.65249C6.64233 7.73078 6.64311 7.81379 6.66674 7.89165C6.7023 7.96439 6.75828 8.02519 6.82783 8.06663C6.89739 8.10807 6.97752 8.12835 7.05841 8.12498ZM14.5667 7.79165C14.5667 8.42154 14.817 9.02563 15.2624 9.47103C15.7078 9.91642 16.3119 10.1666 16.9417 10.1666C17.5716 10.1666 18.1757 9.91642 18.6211 9.47103C19.0665 9.02563 19.3167 8.42154 19.3167 7.79165C19.3167 7.16176 19.0665 6.55767 18.6211 6.11227C18.1757 5.66687 17.5716 5.41665 16.9417 5.41665C16.3119 5.41665 15.7078 5.66687 15.2624 6.11227C14.817 6.55767 14.5667 7.16176 14.5667 7.79165Z" fill="#515DEF"/>
<path d="M14.3332 12.2917H19.5582C19.6363 12.2918 19.7129 12.27 19.7792 12.2288C19.8455 12.1875 19.8989 12.1285 19.9332 12.0583C19.9665 11.9873 19.9794 11.9084 19.9706 11.8304C19.9618 11.7525 19.9315 11.6785 19.8832 11.6167C19.5306 11.1756 19.0829 10.8198 18.5735 10.576C18.0642 10.3321 17.5063 10.2064 16.9416 10.2083C16.3784 10.2083 15.8223 10.3348 15.3146 10.5786C14.8069 10.8224 14.3604 11.1771 14.0082 11.6167C13.9581 11.6776 13.9267 11.7517 13.9179 11.8301C13.909 11.9085 13.923 11.9878 13.9582 12.0583C13.9926 12.1285 14.046 12.1875 14.1123 12.2288C14.1786 12.27 14.2551 12.2918 14.3332 12.2917Z" fill="#515DEF"/>
<path d="M19.1667 13.5417H13.75C13.6395 13.5417 13.5335 13.4978 13.4554 13.4196C13.3772 13.3415 13.3333 13.2355 13.3333 13.125V10.2083C13.3333 9.98732 13.2455 9.77536 13.0893 9.61908C12.933 9.4628 12.721 9.375 12.5 9.375H7.5C7.27899 9.375 7.06702 9.4628 6.91074 9.61908C6.75446 9.77536 6.66667 9.98732 6.66667 10.2083V13.125C6.66667 13.2355 6.62277 13.3415 6.54463 13.4196C6.46649 13.4978 6.36051 13.5417 6.25 13.5417H0.833333C0.61232 13.5417 0.400358 13.6295 0.244078 13.7857C0.0877974 13.942 0 14.154 0 14.375L0 18.125C0 18.346 0.0877974 18.558 0.244078 18.7143C0.400358 18.8705 0.61232 18.9583 0.833333 18.9583H19.1667C19.3877 18.9583 19.5996 18.8705 19.7559 18.7143C19.9122 18.558 20 18.346 20 18.125V14.375C20 14.154 19.9122 13.942 19.7559 13.7857C19.5996 13.6295 19.3877 13.5417 19.1667 13.5417Z" fill="#515DEF"/>
</svg>
