<svg width="21" height="21" viewBox="0 0 21 21" fill="none" xmlns="http://www.w3.org/2000/svg">
<path fill-rule="evenodd" clip-rule="evenodd" d="M10.5 1.75C11.6491 1.74999 12.7869 1.97632 13.8485 2.41604C14.9101 2.85577 15.8747 3.50029 16.6872 4.3128C17.4997 5.12531 18.1442 6.0899 18.584 7.1515C19.0237 8.2131 19.25 9.35092 19.25 10.5C19.25 15.3325 15.3325 19.25 10.5 19.25C5.66753 19.25 1.75 15.3325 1.75 10.5C1.75 5.66753 5.66753 1.75 10.5 1.75ZM11.375 11.375H9.625C7.45876 11.375 5.59899 12.687 4.79685 14.5598C6.06603 16.3395 8.14749 17.5 10.5 17.5C12.8525 17.5 14.9339 16.3395 16.2032 14.5597C15.401 12.687 13.5413 11.375 11.375 11.375ZM10.5 4.375C9.05025 4.375 7.87499 5.55026 7.87499 7C7.87499 8.44974 9.05025 9.625 10.5 9.625C11.9497 9.625 13.125 8.44974 13.125 7C13.125 5.55026 11.9498 4.375 10.5 4.375Z" fill="#515DEF"/>
</svg>
