<svg width="24" height="24" viewBox="0 0 24 24" fill="none" xmlns="http://www.w3.org/2000/svg">
<rect width="24" height="24" fill="#F4F5FF"/>
<path d="M10.0312 3.17188C10.5833 3.17211 11.0312 3.61974 11.0312 4.17188C11.0311 4.68457 10.6447 5.10728 10.1475 5.16504L10.0312 5.17188H6C4.40238 5.17188 3.09621 6.42039 3.00488 7.99512L3 8.17188V18.1719C3.00016 19.7692 4.24877 21.0745 5.82324 21.166L6 21.1719H16C17.5977 21.1719 18.9039 19.9225 18.9951 18.3477L19 18.1719V13.2529C19.0002 12.7008 19.4478 12.2529 20 12.2529C20.5128 12.2529 20.9354 12.6394 20.9932 13.1367L21 13.2529V18.1719C20.9998 20.8605 18.8775 23.0534 16.2168 23.167L16 23.1719H6C3.31132 23.1719 1.11856 21.0494 1.00488 18.3887L1 18.1719V8.17188C1 5.48312 3.1224 3.28934 5.7832 3.17578L6 3.17188H10.0312ZM15.8789 2.87891C17.0505 1.70733 18.9495 1.70733 20.1211 2.87891L21.293 4.0498C22.4645 5.22138 22.4645 7.1214 21.293 8.29297L12.707 16.8789C12.5195 17.0663 12.2651 17.1719 12 17.1719H8C7.44782 17.1719 7.00016 16.724 7 16.1719V12.1719C7 11.9067 7.10553 11.6524 7.29297 11.4648L15.8789 2.87891ZM18.707 4.29297C18.3165 3.90244 17.6835 3.90244 17.293 4.29297L9 12.5859V15.1719H11.584L19.8789 6.87891C20.2394 6.51842 20.2669 5.95088 19.9619 5.55859L19.8789 5.46484L18.707 4.29297Z" fill="#515DEF"/>
</svg>
