<svg width="232" height="295" viewBox="0 0 232 295" fill="none" xmlns="http://www.w3.org/2000/svg">
<rect opacity="0.100655" y="63.3185" width="231.25" height="231.25" rx="33.0357" fill="#515DEF"/>
<path fill-rule="evenodd" clip-rule="evenodd" d="M34.4121 162.562V130.098C34.4121 124.387 45.985 119.755 60.2538 119.755H118.689C132.963 119.755 144.531 124.387 144.531 130.098V163.802L34.4121 162.562Z" fill="#B0D4FF"/>
<path fill-rule="evenodd" clip-rule="evenodd" d="M116.176 4.54473C109.269 0.901899 98.7564 0.409407 97.051 0.179275C76.6168 -2.57727 64.3181 27.2306 63.5958 36.2647C62.2616 52.9128 53.489 55.4508 41.1452 65.8747C16.3873 86.783 23.6452 111.075 37.1827 120.099C45.3083 125.518 59.6233 120.099 59.6233 120.099C59.824 120.24 98.7765 98.2392 117.977 87.6239C146.762 83.5148 133.777 13.8256 116.176 4.54473Z" fill="#233862"/>
<path fill-rule="evenodd" clip-rule="evenodd" d="M86.2283 78.6973C80.1909 76.0657 75.6224 66.2857 75.7082 66.2808C78.4544 66.1564 82.4967 62.3212 84.8188 46.8006L85.3424 47.1699L104.613 55.6551C104.613 55.6551 103.19 61.8683 102.266 67.7831C101.494 72.7527 101.075 77.5133 102.15 78.2147C102.236 78.2695 92.6393 81.493 86.2283 78.6973Z" fill="#FFB27D"/>
<path fill-rule="evenodd" clip-rule="evenodd" d="M104.613 55.2098C104.613 55.2098 103.217 61.4795 102.311 67.448C91.2428 65.43 86.8966 54.246 85.3423 48.1771L104.613 55.2098Z" fill="#ED975D"/>
<path fill-rule="evenodd" clip-rule="evenodd" d="M108.637 60.5587C108.637 60.5587 81.6152 56.9833 84.1312 40.4545C86.6473 23.9257 84.8566 12.3305 102.215 13.9085C119.574 15.4915 121.958 22.2927 122.481 28.0104C123.003 33.7281 115.729 61.0581 108.637 60.5587Z" fill="#FFB27D"/>
<path fill-rule="evenodd" clip-rule="evenodd" d="M121.131 20.6069C121.131 20.6069 104.305 35.7078 92.8626 36.9259C81.4152 38.1441 77.083 34.3149 77.083 34.3149C77.083 34.3149 83.8281 28.4811 87.8889 19.0649C89.083 16.2894 91.6142 14.3876 94.5254 14.1255C102.696 13.3905 118.185 13.0564 121.131 20.6069Z" fill="#233862"/>
<path fill-rule="evenodd" clip-rule="evenodd" d="M110.119 18.3644C110.119 18.3644 115.817 23.9443 117.617 28.0824C119.346 32.0789 119.866 41.63 118.487 45.4241C118.487 45.4241 127.374 27.9408 122.34 19.447C117.007 10.4372 110.119 18.3644 110.119 18.3644Z" fill="#233862"/>
<path fill-rule="evenodd" clip-rule="evenodd" d="M119.132 165.395C117.705 166.614 113.704 167.343 108.442 167.685C91.8838 168.775 62.783 166.074 61.6764 163.046C57.8561 152.568 60.5548 149.312 57.3704 133.268C57.0349 131.563 56.6243 129.714 56.1437 127.702C53.4849 116.684 50.9013 112.937 60.3245 95.2331C68.8715 79.1993 77.1005 65.6125 77.9017 66.0834C100.448 79.3317 102.104 69.653 102.104 69.653C102.104 69.653 125.651 91.9768 125.256 118.047C124.449 171.491 125.035 160.32 119.132 165.395Z" fill="white"/>
<path fill-rule="evenodd" clip-rule="evenodd" d="M63.2942 163.062C59.4373 152.422 61.0274 147.716 57.8125 131.423L66.617 110.119C66.617 110.119 65.2875 135.29 72.7384 141.909C80.1892 148.528 103.26 154.689 106.884 160.22C108.633 162.878 109.785 165.535 110.119 167.675C93.4026 168.782 64.4113 166.138 63.2942 163.062Z" fill="#EBF3FF"/>
<path fill-rule="evenodd" clip-rule="evenodd" d="M89.4717 156.941C89.4717 156.941 105.798 152.953 108.431 154.54C111.063 156.133 117.5 161.923 118.311 163.938C119.117 165.954 112.445 162.406 110.273 161.769C108.871 161.357 105.168 162.763 103.341 163.433C95.6329 166.256 90.9131 164.806 90.9131 164.806L89.4717 156.941Z" fill="#FFB27D"/>
<path fill-rule="evenodd" clip-rule="evenodd" d="M49.3953 77.0686C38.7718 91.8062 17.7039 154.608 29.7804 162.989C43.3794 172.42 91.6654 165.455 91.6654 165.455C91.6654 165.455 93.2726 157.984 91.0384 154.366C88.7993 150.752 52.4704 144.915 50.7935 143.247C49.1166 141.579 71.7519 110.712 71.7519 105.707C71.7519 100.702 77.9016 66.0715 77.9016 66.0715C77.9016 66.0715 56.9387 66.5983 49.3953 77.0686Z" fill="white"/>
<path fill-rule="evenodd" clip-rule="evenodd" d="M108.743 159.673C108.743 159.673 112.427 164.216 113.635 164.757C114.843 165.298 115.625 165.164 115.625 165.164L113.144 160.893L108.743 159.673Z" fill="#FFB27D"/>
<path fill-rule="evenodd" clip-rule="evenodd" d="M107.366 155.543L118.378 160.406C118.378 160.406 117.907 161.101 116.555 161.046C115.197 160.991 111.778 159.852 111.778 159.852L107.366 155.543Z" fill="#FFB27D"/>
<path fill-rule="evenodd" clip-rule="evenodd" d="M114.249 170.685H192.552L216.109 111.496H137.925L114.249 170.685Z" fill="#FDC748"/>
<path fill-rule="evenodd" clip-rule="evenodd" d="M192.708 167.932H89.4717V170.684H191.793L192.708 167.932Z" fill="#E6B137"/>
<path fill-rule="evenodd" clip-rule="evenodd" d="M171.899 141.088C172.53 139.189 171.262 137.649 169.067 137.649C166.878 137.649 164.592 139.189 163.962 141.088C163.336 142.987 164.603 144.531 166.793 144.531C168.988 144.531 171.273 142.987 171.899 141.088Z" fill="white"/>
</svg>
